<?xml version="1.0" standalone="no"?>
<!DOCTYPE svg PUBLIC "-//W3C//DTD SVG 20010904//EN"
 "http://www.w3.org/TR/2001/REC-SVG-20010904/DTD/svg10.dtd">
<svg version="1.0" xmlns="http://www.w3.org/2000/svg"
 width="512.000000pt" height="512.000000pt" viewBox="0 0 512.000000 512.000000"
 preserveAspectRatio="xMidYMid meet">
<metadata>
Created by potrace 1.11, written by Peter Selinger 2001-2013
</metadata>
<g transform="translate(0.000000,512.000000) scale(0.100000,-0.100000)"
fill="#000000" stroke="none">
<path d="M2428 4905 c-2 -1 -39 -6 -83 -9 -186 -16 -357 -52 -550 -118 -113
-38 -137 -48 -292 -125 -69 -35 -130 -60 -136 -56 -5 3 -7 1 -4 -5 4 -5 -14
-22 -40 -38 -27 -15 -77 -48 -112 -73 -35 -25 -69 -45 -75 -43 -6 2 -8 1 -4
-3 4 -4 -26 -33 -65 -65 -83 -67 -210 -190 -282 -274 -27 -32 -56 -64 -62 -71
-34 -35 -204 -301 -243 -380 -25 -49 -49 -93 -53 -96 -5 -3 -8 -9 -7 -13 3
-12 -22 -66 -29 -62 -3 2 -7 -6 -7 -17 -2 -33 -46 -147 -56 -147 -5 0 -7 -4
-4 -8 3 -5 -2 -31 -10 -58 -9 -27 -18 -58 -20 -69 -7 -29 -13 -55 -23 -95 -5
-21 -13 -34 -21 -32 -10 2 -11 0 -2 -11 6 -7 9 -24 7 -38 -3 -13 -8 -37 -11
-54 -20 -101 -29 -225 -27 -410 1 -198 5 -253 29 -365 2 -8 5 -36 8 -61 2 -25
8 -54 13 -65 6 -10 9 -29 8 -42 -1 -12 2 -22 6 -22 7 0 24 -74 22 -97 0 -7 3
-11 7 -8 6 4 25 -49 36 -103 1 -8 10 -29 19 -48 9 -19 13 -39 9 -46 -4 -7 -3
-8 4 -4 10 6 13 -2 12 -29 -1 -3 6 -13 15 -22 9 -8 14 -21 11 -29 -3 -7 -1
-14 4 -16 5 -2 10 -10 12 -18 2 -8 9 -21 16 -28 7 -8 10 -18 7 -23 -4 -5 -2
-9 2 -9 5 0 13 -9 18 -19 6 -11 21 -41 35 -68 13 -26 35 -61 47 -76 13 -16 21
-33 17 -38 -3 -5 0 -9 6 -9 6 0 9 -4 6 -9 -3 -5 1 -11 9 -15 8 -3 15 -13 15
-21 0 -9 4 -13 10 -10 6 3 10 -3 10 -15 0 -12 4 -19 9 -15 5 3 12 -4 16 -15 3
-11 12 -26 18 -32 41 -43 66 -81 61 -90 -4 -6 -2 -8 3 -5 6 4 22 -8 36 -26 13
-17 45 -54 71 -81 25 -26 43 -53 39 -59 -3 -5 -1 -7 5 -3 6 3 40 -23 76 -58
36 -35 66 -62 66 -59 0 3 7 0 15 -7 8 -7 12 -16 9 -21 -3 -5 -2 -9 3 -8 21 4
33 -2 33 -17 0 -8 5 -12 10 -9 6 3 10 3 10 -2 0 -4 14 -16 32 -26 26 -15 29
-20 17 -29 -11 -8 -10 -9 4 -4 21 7 79 -32 70 -47 -3 -6 -1 -7 5 -3 15 9 55
-18 44 -29 -4 -5 -1 -5 7 0 9 5 18 2 25 -7 6 -8 13 -15 16 -16 13 -1 66 -28
78 -39 7 -7 30 -20 50 -30 20 -9 40 -21 43 -26 3 -5 10 -8 15 -7 20 3 46 -9
39 -19 -4 -7 0 -8 11 -4 13 5 15 3 9 -7 -6 -10 -4 -12 7 -8 8 4 35 -3 59 -14
24 -11 53 -21 63 -24 11 -2 23 -9 28 -16 4 -7 8 -10 8 -6 0 3 45 -9 101 -28
55 -19 107 -34 115 -34 8 0 14 -6 14 -12 0 -10 2 -10 9 0 6 11 11 10 25 -3 12
-12 16 -13 16 -3 0 8 3 9 8 3 4 -5 12 -10 17 -11 6 0 35 -4 65 -9 30 -5 58 -8
63 -7 4 1 7 -1 7 -6 0 -4 12 -7 28 -8 15 0 61 -4 102 -8 41 -5 85 -9 98 -10
13 -1 28 -8 34 -16 8 -13 9 -13 5 1 -3 9 1 16 9 16 8 0 14 -3 14 -6 0 -3 35
-5 77 -4 43 1 78 3 78 3 0 1 36 3 80 5 44 2 80 4 80 5 0 1 14 3 30 5 17 2 47
6 68 9 27 4 36 2 31 -6 -4 -6 3 -4 16 5 19 13 27 14 39 4 12 -9 13 -9 7 0 -5
9 0 13 13 14 21 2 39 5 44 9 5 4 43 10 74 13 18 1 33 5 33 8 0 3 26 12 58 19
68 16 63 15 84 24 9 4 22 9 30 10 7 1 23 8 36 14 12 7 22 10 22 6 0 -3 7 -1
15 6 8 6 18 9 24 6 5 -3 11 -3 13 2 4 10 140 67 155 66 7 -1 11 2 8 6 -5 8 54
37 68 32 4 -1 7 3 7 8 0 6 4 10 10 10 5 0 29 13 52 29 24 16 46 27 50 25 5 -3
8 -1 8 5 0 6 7 7 17 4 10 -4 14 -2 10 4 -4 6 8 20 25 31 24 16 35 18 40 9 5
-8 8 -7 8 3 0 20 97 93 112 84 6 -4 8 -3 4 4 -8 13 44 51 64 45 12 -4 12 -3 1
5 -10 8 -8 13 10 25 12 9 27 13 32 10 6 -3 7 -1 4 4 -8 13 17 36 28 25 5 -4 5
-2 1 5 -8 14 27 36 39 25 5 -4 5 -1 1 5 -9 15 80 107 94 98 6 -4 7 1 3 11 -5
14 -3 16 11 11 10 -4 15 -3 11 3 -7 11 24 55 40 58 6 1 10 5 10 10 0 4 11 19
24 32 12 14 30 36 39 50 24 36 83 114 91 120 4 3 11 12 14 20 4 8 16 29 27 45
11 17 24 40 30 53 6 14 15 20 22 16 7 -4 8 -3 4 4 -6 11 37 103 62 130 6 7 12
18 12 24 0 6 14 41 31 77 17 36 34 75 39 86 22 55 50 133 56 158 3 15 10 27
16 27 5 0 6 5 3 10 -4 6 -1 18 7 27 11 14 11 15 0 9 -11 -6 -11 -4 -3 10 12
23 39 133 47 195 3 24 10 61 15 81 15 57 24 197 23 363 0 200 -18 375 -52 496
-5 19 -8 46 -8 61 1 14 -2 24 -6 22 -4 -3 -8 1 -9 8 -1 16 -5 34 -17 75 -6 17
-8 34 -4 37 3 3 1 6 -5 6 -5 0 -16 25 -23 55 -7 30 -18 55 -23 55 -5 0 -3 8 4
17 8 9 9 14 3 10 -11 -6 -23 10 -29 39 -2 7 -21 49 -43 95 -22 46 -43 91 -46
99 -3 8 -17 33 -31 55 -14 22 -28 47 -32 55 -11 26 -165 254 -183 270 -3 3
-32 37 -65 75 -221 257 -514 474 -834 614 -79 35 -276 106 -321 116 -8 2 -53
12 -100 23 -88 20 -123 26 -275 47 -50 7 -371 15 -377 10z"/>
<path d="M4696 1538 c3 -5 10 -6 15 -3 13 9 11 12 -6 12 -8 0 -12 -4 -9 -9z"/>
<path d="M4654 1456 c1 -8 5 -18 8 -22 4 -3 5 1 4 10 -1 8 -5 18 -8 22 -4 3
-5 -1 -4 -10z"/>
<path d="M535 1320 c3 -5 8 -10 11 -10 2 0 4 5 4 10 0 6 -5 10 -11 10 -5 0 -7
-4 -4 -10z"/>
<path d="M680 1100 c-12 -7 -10 -9 7 -7 12 0 19 5 17 9 -6 10 -6 10 -24 -2z"/>
<path d="M816 941 c-3 -5 2 -15 12 -22 15 -12 16 -12 5 2 -7 9 -10 19 -6 22 3
4 4 7 0 7 -3 0 -8 -4 -11 -9z"/>
<path d="M4215 861 c-3 -5 -2 -12 3 -15 5 -3 9 1 9 9 0 17 -3 19 -12 6z"/>
<path d="M935 820 c-3 -5 -1 -10 4 -10 6 0 11 5 11 10 0 6 -2 10 -4 10 -3 0
-8 -4 -11 -10z"/>
<path d="M4060 700 c8 -5 20 -10 25 -10 6 0 3 5 -5 10 -8 5 -19 10 -25 10 -5
0 -3 -5 5 -10z"/>
<path d="M1174 618 c-4 -7 -3 -10 1 -5 5 4 18 -1 29 -10 21 -18 21 -18 2 5
-22 26 -23 26 -32 10z"/>
<path d="M3890 585 c0 -7 30 -13 34 -7 3 4 -4 9 -15 9 -10 1 -19 0 -19 -2z"/>
<path d="M3827 559 c7 -7 15 -10 18 -7 3 3 -2 9 -12 12 -14 6 -15 5 -6 -5z"/>
<path d="M1370 499 c0 -5 5 -7 10 -4 6 3 10 8 10 11 0 2 -4 4 -10 4 -5 0 -10
-5 -10 -11z"/>
<path d="M3693 465 c0 -8 4 -12 9 -9 5 3 6 10 3 15 -9 13 -12 11 -12 -6z"/>
<path d="M1490 426 c0 -2 7 -7 16 -10 8 -3 12 -2 9 4 -6 10 -25 14 -25 6z"/>
<path d="M1576 387 c3 -10 9 -15 12 -12 3 3 0 11 -7 18 -10 9 -11 8 -5 -6z"/>
<path d="M3516 378 c3 -4 11 -5 19 -1 21 7 19 12 -4 10 -11 0 -18 -5 -15 -9z"/>
<path d="M3436 362 c-3 -5 1 -9 9 -9 8 0 12 4 9 9 -3 4 -7 8 -9 8 -2 0 -6 -4
-9 -8z"/>
<path d="M1693 345 c0 -8 4 -12 9 -9 5 3 6 10 3 15 -9 13 -12 11 -12 -6z"/>
<path d="M3255 261 c-3 -5 -2 -12 3 -15 5 -3 9 1 9 9 0 17 -3 19 -12 6z"/>
<path d="M3015 220 c3 -5 8 -10 11 -10 2 0 4 5 4 10 0 6 -5 10 -11 10 -5 0 -7
-4 -4 -10z"/>
<path d="M3095 220 c-3 -5 -1 -10 4 -10 6 0 11 5 11 10 0 6 -2 10 -4 10 -3 0
-8 -4 -11 -10z"/>
<path d="M2334 202 c4 -3 14 -7 22 -8 9 -1 13 0 10 4 -4 3 -14 7 -22 8 -9 1
-13 0 -10 -4z"/>
<path d="M2826 198 c3 -5 10 -6 15 -3 13 9 11 12 -6 12 -8 0 -12 -4 -9 -9z"/>
<path d="M2655 180 c3 -5 8 -10 11 -10 2 0 4 5 4 10 0 6 -5 10 -11 10 -5 0 -7
-4 -4 -10z"/>
<path d="M2770 179 c0 -5 5 -7 10 -4 6 3 10 8 10 11 0 2 -4 4 -10 4 -5 0 -10
-5 -10 -11z"/>
<path d="M2855 180 c-3 -5 -1 -10 4 -10 6 0 11 5 11 10 0 6 -2 10 -4 10 -3 0
-8 -4 -11 -10z"/>
<path d="M2353 165 c0 -8 4 -12 9 -9 5 3 6 10 3 15 -9 13 -12 11 -12 -6z"/>
<path d="M2430 176 c0 -2 8 -10 18 -17 15 -13 16 -12 3 4 -13 16 -21 21 -21
13z"/>
<path d="M2515 169 c-4 -6 -5 -12 -2 -15 2 -3 7 2 10 11 7 17 1 20 -8 4z"/>
<path d="M2550 159 c0 -5 5 -7 10 -4 6 3 10 8 10 11 0 2 -4 4 -10 4 -5 0 -10
-5 -10 -11z"/>
</g>
</svg>
